<svg width="16" height="16" viewBox="0 0 16 16" fill="none" xmlns="http://www.w3.org/2000/svg">
<rect width="16" height="16" fill="black"/>
<path d="M4.50052 3.352C5.05371 3.352 5.54127 3.48326 5.9632 3.7458C6.3945 4.00833 6.72735 4.37399 6.96175 4.8428C7.19615 5.3116 7.31335 5.84135 7.31335 6.43205C7.31335 7.39778 6.99457 8.15725 6.35699 8.71044C5.71942 9.26363 4.7865 9.54022 3.55823 9.54022L2.51748 9.51209V13.0141H1.36422V3.352H4.50052ZM3.727 8.47135C4.52397 8.47135 5.12872 8.2932 5.54127 7.93691C5.95382 7.57124 6.16009 7.05556 6.16009 6.38985C6.16009 5.77103 5.99132 5.28816 5.65378 4.94125C5.31624 4.59433 4.87088 4.42087 4.31769 4.42087H2.51748V8.42915L3.00973 8.44322C3.36602 8.46197 3.60511 8.47135 3.727 8.47135Z" fill="white"/>
<path d="M10.5427 3.08478H11.0068L15.1558 13.0141H13.9322L12.6101 9.90589H8.93941L7.6455 13.0141H6.42192L10.5427 3.08478ZM10.9646 5.85542L10.8521 5.48975L10.7677 5.16627L10.6693 5.47569L10.5568 5.85542L9.37539 8.86514H12.1601L10.9646 5.85542Z" fill="white"/>
</svg>
