<svg width="10" height="10" viewBox="0 0 10 10" fill="none" xmlns="http://www.w3.org/2000/svg">
<g clip-path="url(#clip0_1562_3611)">
<path d="M7.59034 7.23937C7.59034 7.36418 7.48507 7.46506 7.35483 7.46506H6.4128C6.28257 7.46506 6.1773 7.36418 6.1773 7.23937C6.1773 6.94551 6.37489 6.69725 6.64831 6.60381V6.56228C6.64831 6.18898 6.33132 5.8852 5.94179 5.8852C5.58523 5.8852 5.24351 5.8852 5.23527 5.8852C4.94159 5.8852 4.61588 5.87956 4.29324 5.83171V6.56228C3.94186 6.56228 3.61121 6.19079 3.59072 5.63852C2.95132 5.35685 2.44521 4.75492 2.41695 3.46959C2.41601 3.43168 2.40918 3.31161 2.40918 3.28971C2.40918 3.10284 2.56744 2.95117 2.76244 2.95117C2.82367 2.95117 2.88067 2.96742 2.93083 2.99383C2.94896 3.00331 6.54563 5.29772 6.54563 5.29772C7.12474 5.63761 7.14452 6.01091 7.12898 6.60674C7.39769 6.70289 7.59034 6.9489 7.59034 7.23937Z" fill="#F3F4F6"/>
<path opacity="0.4" d="M5.86835 5.88533C5.51179 5.88533 5.24355 5.88533 5.23531 5.88533C4.94163 5.88533 4.61592 5.87969 4.29328 5.83184C4.29328 5.83184 3.8663 5.75827 3.59076 5.63865C2.95536 5.35879 2.4502 4.78304 2.41699 3.46973L5.86835 5.88533Z" fill="#F3F4F6"/>
<path opacity="0.3" d="M3.59072 5.63877C3.8665 5.75861 4.29324 5.83196 4.29324 5.83196V6.56253C3.94186 6.56253 3.61121 6.19104 3.59072 5.63877ZM2.48219 3.08594C2.43697 3.14281 2.40918 3.213 2.40918 3.28997C2.40918 3.31186 2.41177 3.33307 2.41601 3.35384C2.41601 3.35406 2.41577 3.35429 2.41577 3.35451C2.41577 3.39266 2.41624 3.43283 2.41695 3.46984L3.4626 4.19748L3.67197 3.92484L2.48219 3.08594ZM7.59034 7.23962C7.59034 7.36443 7.48507 7.46531 7.35483 7.46531H6.4128C6.28257 7.46531 6.1773 7.36443 6.1773 7.23962C6.1773 6.94576 6.37489 6.6975 6.64831 6.60406L7.12922 6.607C7.39769 6.70314 7.59034 6.94915 7.59034 7.23962Z" fill="#F3F4F6"/>
</g>
<circle cx="5" cy="5" r="4.4" stroke="#F3F4F6" stroke-width="1.2"/>
<defs>
<clipPath id="clip0_1562_3611">
<rect width="5.65217" height="5.41667" fill="white" transform="translate(2.17383 2.5)"/>
</clipPath>
</defs>
</svg>
